<svg width="486" height="486" viewBox="0 0 486 486" fill="none" xmlns="http://www.w3.org/2000/svg">
<rect y="6.10352e-05" width="486" height="486" rx="162" fill="#252425"/>
<path d="M164.722 349.97C120.398 349.97 91.368 320.939 91.368 279.467L91.368 165.16H127.656L127.656 275.579C127.656 301.24 139.838 316.792 164.722 316.792C189.605 316.792 201.787 301.24 201.787 275.579L201.787 165.16H238.075L238.075 279.467C238.075 320.939 209.045 349.97 164.722 349.97ZM258.937 346.6L258.937 211.816H293.41L293.41 231.515C300.409 216.482 313.887 208.706 334.623 208.706C363.653 208.706 385.945 230.219 385.945 264.175L385.945 346.6H350.953L350.953 272.728C350.953 249.4 339.289 239.291 321.922 239.291C307.148 239.291 293.929 249.4 293.929 272.728L293.929 346.6H258.937Z" fill="white"/>
</svg>
