<?xml version="1.0" encoding="UTF-8"?><svg id="Layer_1" xmlns="http://www.w3.org/2000/svg" width="520" height="520" viewBox="0 0 520 520"><defs><style>.cls-1,.cls-2{opacity:.45;}.cls-1,.cls-3{fill:#231f20;stroke-width:0px;}.cls-4{opacity:.5;}</style></defs><ellipse class="cls-1" cx="59.99" cy="117.88" rx="3.93" ry="3.08"/><path class="cls-1" d="m299.13,119.12c-.02,1.63-1.23,3.26-3.22,3.26-1.8,0-3.26-1.46-3.26-3.26,0-2.45,2.55-3.83,4.71-2.81,1.23.58,1.78,1.69,1.76,2.81Z"/><circle class="cls-1" cx="403.17" cy="421.53" r="2.24"/><path class="cls-3" d="m219.02,411.34c.31.75.65,1.51,1.09,2.24.15.27.37.49.55.75.59.93,1.3,1.81,2.08,2.64.33.39.74.69,1.12,1.01.26.19.52.38.78.58.25.22.54.36.71.69.11.2.05.26-.21.36-.28.13-.72.23-1.09.08-.65-.27-1.29-.57-1.89-.94-.31-.18-.59-.39-.87-.61-.27-.23-.5-.51-.73-.78-.54-.66-1.24-1.21-1.81-1.88-.61-.74-1.17-1.54-1.6-2.41-.29-.52-.51-1.08-.74-1.62-.17-.42-.3-.85-.44-1.28-.12-.43-.24-.87-.36-1.3-.08-.34-.21-.66-.34-.99-.11-.34-.22-.68-.32-1.02-.05-.15-.1-.3-.12-.46-.08-.58.17-.77.86-.87.16-.02.32-.05.48-.06.54-.03,1.01.19,1.21.54.47,1.03.65,2.02.94,3.04.19.76.44,1.52.77,2.26l-.05.03Z"/><g class="cls-4"><path class="cls-3" d="m171.9,244.06c.01-.14.05-.22.11-.27.04-.03.06-.08.09-.13.02-.04.04-.08.08-.09.09-.04.17-.12.23-.22.1-.24,1-.51,1.09-.54.13-.05.55-.19.59-.27.05-.09.39-.18.46-.27.03-.04.06-.05.1-.06.17-.04.23-.32.39-.37.1-.03.19-.08.28-.13.02-.01.04-.04.06-.04.27-.04.46-.26.72-.33.05-.01.11-.03.16-.04.03,0,.07,0,.1-.04.13-.16.34-.16.53-.18.03,0,.06.01.07-.02.08-.16.25-.11.36-.2.04-.03.08-.03.13-.04.03,0,.08,0,.1-.03.11-.12.27-.14.4-.23,0,0,.02,0,.03-.02.1-.18.29-.13.48-.12.11,0,.22,0,.26-.14,0-.03.02-.05.04-.05.12.03.21-.02.3-.05,0,0,.02.01.02.01.02,0,.23.4.27.48.04.09.48,1.14.48,1.18,0,.03,0,.07,0,.09-.03.04-.04.12.01.3.03.1.01.13-.02.13-.24-.03-.38.13-.59.17-.09.02-.15.08-.23.12l-1.18.52c-.07.03-.14.05-.23.03-.08-.01-.15,0-.22.03-.11.05-.21.12-.32.17-.16.07-.31.14-.48.19-.27.09-.55.18-.82.26,0,0-.02,0-.03.01-.1.21-.64.31-.67.32-.15.06-.29.12-.44.16-.15.04-.29.12-.44.14-.14.02-.26.08-.39.13-.02,0-.03.02-.06.02-.22.05-1.15.14-1.28.12-.03,0-.06-.02-.1-.06-.03-.04-.07-.05-.1-.08-.03-.03-.07-.09-.1-.11-.03-.02-.06-.02-.09-.04-.03-.01-.06-.06-.08-.12-.02-.06-.08-.26-.1-.32Z"/></g><path class="cls-3" d="m142.44,173.81c1.91,1.95,4.56,3.08,7.3,2.97,2.42-.1,4.87-1.06,6.51-2.88.54-.6.59-1.53,0-2.12-.55-.55-1.58-.6-2.12,0-.15.17-.31.33-.47.48-.08.08-.17.15-.26.22-.12.1.15-.09-.08.06-.39.26-.79.5-1.22.7-.24.12.05-.01-.1.04-.11.04-.23.08-.34.12-.23.08-.46.14-.7.2s-.48.11-.72.14c.22-.03-.03,0-.12,0-.12,0-.25.02-.37.02-1.05.04-1.66-.04-2.71-.42-.3-.11-.81-.36-1.24-.64-.48-.31-.79-.58-1.23-1.03-1.35-1.38-3.47.74-2.12,2.12h0Z"/><path class="cls-3" d="m160.45,193.93c1.9,1.1,4.18,1.49,6.32.98s3.79-1.94,4.62-3.96c.3-.73-.32-1.68-1.05-1.85-.87-.2-1.52.27-1.85,1.05.15-.37-.1.18-.16.27-.05.08-.09.15-.14.22-.03.04-.22.27-.07.1s-.05.05-.08.09c-.07.08-.14.15-.22.23-.06.06-.13.12-.19.18-.15.13-.12.09.02,0-.31.22-.63.38-.96.56-.16.09.28-.1.01,0-.09.03-.17.06-.26.09-.19.06-.38.11-.58.16-.09.02-.18.04-.27.05-.22.04-.13.07.01,0-.14.06-.41.04-.56.04-.21,0-.42,0-.63-.01-.1,0-.19-.02-.29-.02-.37-.03.21.04,0,0-.41-.08-.81-.17-1.2-.3-.11-.04-.22-.08-.34-.13.12.04.17.08.03,0-.22-.11-.44-.22-.65-.34-.68-.39-1.67-.18-2.05.54s-.19,1.63.54,2.05h0Z"/><path class="cls-3" d="m135.1,169.52c-.04-.08-.26-.5-.07-.13-.05-.09-.08-.2-.12-.3-.09-.23-.16-.47-.23-.71s-.12-.48-.17-.73c-.01-.07-.02-.14-.04-.21-.03-.17-.02-.14,0,.08-.04-.1-.03-.26-.04-.37-.04-.5-.04-.99,0-1.49,0-.05,0-.11.02-.16.02-.17.02-.14-.01.08-.01-.11.04-.26.06-.37.05-.26.11-.52.19-.78.21-.75-.26-1.67-1.05-1.85s-1.62.24-1.85,1.05c-.7,2.47-.42,5.08.69,7.38.34.71,1.41.95,2.05.54.73-.47.9-1.29.54-2.05h0Z"/><path class="cls-3" d="m451.57,311.41c.11.65.19,1.29.27,1.93.03.23.13.45.14.68.03.41.04.83.05,1.24-.02.41-.03.83-.05,1.24-.02.36.05.71.06,1.07,0,.23.06.45-.02.68-.14.24-.14.46-.25.69-.06.14-.2.13-.41.03-.22-.1-.52-.29-.78-.51-.06-.05-.14-.1-.19-.15l-.07-.15-.14-.31c-.1-.2-.17-.41-.19-.62-.08-.42-.12-.85-.1-1.29.03-.53-.19-1.04-.3-1.56-.12-.57-.23-1.15-.37-1.72-.09-.35-.18-.7-.28-1.05-.15-.53-.3-1.07-.56-1.55-.21-.37-.56-.66-.79-1.01-.05-.08-.12-.14-.17-.22-.14-.31,0-.52.43-.85l.29-.23c.33-.23.71-.29,1.05-.16.45.21.84.48,1.14.81.27.35.48.73.66,1.13.27.59.49,1.21.65,1.85l-.06.02Z"/><path class="cls-3" d="m469.81,276.92c.3.97.49,1.95.66,2.93.06.36.15.7.2,1.06.1,1.27.09,2.54.04,3.79-.02.55,0,1.11-.07,1.66-.06.7-.17,1.4-.37,2.08-.06.21-.12.18-.22-.02-.09-.19-.26-.54-.33-.94l-.19-1.04c-.06-.35-.16-.69-.15-1.03-.03-.68-.05-1.37-.06-2.06.02-.84-.25-1.67-.39-2.5-.15-.92-.37-1.82-.62-2.71-.18-.54-.34-1.09-.58-1.61-.32-.8-.73-1.56-1.2-2.28-.39-.54-.87-.98-1.36-1.39l-.32-.27c-.39-.34-.41-.56-.23-.97.04-.09.08-.19.13-.28.16-.29.51-.35.94-.16,1.21.62,2.22,1.68,2.95,2.87.5.91.91,1.87,1.22,2.84l-.04.02Z"/><path class="cls-3" d="m447.93,269.38c.41-.63.86-1.25,1.33-1.85.17-.22.32-.46.52-.67.72-.71,1.53-1.36,2.49-1.82.45-.18.87-.41,1.38-.47.3-.1.64-.06.96-.05.08,0,.16,0,.24.04l.21.16c.13.11.25.23.36.34.13.16.04.28-.18.51-.11.11-.25.26-.38.43-.08.1-.14.18-.2.25-.03.04-.06.07-.09.12-.02,0-.05.01-.07.02-.16.07-.3.07-.44.15-.14.09-.26.1-.42.18-.31.1-.68.25-1.08.46-.25.12-.46.3-.63.54-.19.21-.35.47-.53.7-.41.51-.82,1.05-1.19,1.62-.23.35-.45.71-.65,1.09-.3.57-.6,1.15-.82,1.75-.16.47-.18.98-.25,1.47-.02.11-.01.22-.04.33-.09.39-.27.47-.84.4-.13-.02-.26-.03-.39-.05-.43-.08-.73-.34-.78-.69-.13-1.01.09-2,.44-2.95.28-.69.64-1.36,1.01-2.02l.05.02Z"/><path class="cls-3" d="m241.43,404.19c1.28-.16,2.58-.23,3.87-.49l1.93-.34c.64-.12,1.28-.3,1.92-.44.94-.22,1.84-.54,2.76-.82,3.27-.9,6.53-1.97,9.68-3.32,1.41-.59,2.75-1.32,4.06-2.07.87-.43,1.7-.94,2.56-1.38.44-.21.85-.48,1.31-.65.47-.17.94-.34,1.41-.51.6-.19.63,0,.39.57-.12.29-.3.69-.54,1.16-.12.23-.24.5-.41.72-.18.21-.37.42-.6.59-.82.62-1.63,1.25-2.47,1.85-.86.55-1.78,1.01-2.69,1.49-.93.44-1.86.87-2.8,1.29-.95.39-1.92.74-2.9,1.08-1.17.4-2.35.82-3.52,1.31-1.19.44-2.39.85-3.59,1.24-1.35.35-2.68.72-4.04,1.01-1.37.24-2.72.59-4.11.72l-2.55.31-2.57.15c-.65.06-1.3.05-1.95.03l-1.95-.04c-1.3-.08-2.6-.25-3.89-.35-.99-.18-1.99-.31-2.99-.42-.99-.17-1.98-.42-2.97-.67l-.65-.16c-.21-.07-.42-.16-.62-.25-1.54-.69-1.91-1.18-1.81-2.07.02-.2.02-.41.07-.6.17-.6,1.03-.85,2.11-.6.8.2,1.58.44,2.41.54.81.15,1.59.41,2.41.54.83.12,1.65.26,2.47.41.84.08,1.69.16,2.53.24.63.09,1.27.08,1.91.09l1.92.05c1.29-.09,2.58-.1,3.88-.26v.08Z"/><path class="cls-3" d="m223.54,420.03c-.98-.3-1.89-.78-2.7-1.36-.29-.23-.61-.39-.88-.63-.96-.84-1.73-1.82-2.4-2.82-.31-.44-.59-.89-.88-1.33-.35-.58-.68-1.17-.9-1.8-.07-.2.02-.21.21-.12.18.1.48.3.7.6.81,1.07,1.71,2.01,2.57,2.96.25.29.57.53.88.77.34.2.66.43,1,.61.73.44,1.51.75,2.31,1.07.5.14,1.01.32,1.54.37.4.07.8.11,1.21.12.4.04.81,0,1.22-.04.63-.06,1.22-.33,1.81-.51.13-.05.25-.12.38-.16.49-.14.68-.04.94.47.06.12.12.23.17.35.17.4.04.79-.33,1.02-1.08.72-2.44.99-3.81.96-1.02-.04-2.05-.18-3.04-.49v-.05Z"/><path class="cls-3" d="m251.13,415.02c-5.31,1.75-10.67,3.36-16.08,4.82l-2.97.81c-.98.28-1.98.54-3,.75-.89.19-1.78.39-2.71.52l-1.38.22c-.5.05-1.02.08-1.53.11-.38.07-1.44-.03-1.95-.31-.31-.12-.59-.26-.82-.41-.23-.15-.5-.29-.69-.46-.87-.64-1.52-1.35-2.18-2.07-1.26-1.46-2.29-3.02-3.21-4.66-.89-1.68-1.71-3.29-2.17-5.39-.13-.58-.14-1.21.06-1.77l.16-.42.23-.39c.13-.26.38-.51.54-.7.74-.73,1.52-1.19,2.28-1.6,1.54-.78,3.08-1.36,4.63-1.81,1.99-.57,3.97-1.13,5.98-1.48,1.01-.15,2.02-.29,3.03-.4l1.51-.17c.5-.05,1.02-.03,1.53-.05,1.28,0,1.14.04.21.72-.92.75-2.68,1.97-4.86,2.82-.48.18-.96.38-1.44.55l-1.46.43c-.97.29-1.93.59-2.86.91-1.83.67-3.77,1.24-5.14,2.05-.34.19-.6.4-.77.55-.06.05-.07.04-.1.09,0,.02-.02.03-.02.06l.03.18c.02.1.02.19.06.3.1.41.21.84.36,1.27.57,1.75,1.56,3.48,2.6,5.1.64.97,1.38,1.88,2.18,2.63.4.38.82.7,1.2.92.1.08.18.09.26.13.08.02.17.09.22.09.05,0,.1,0,.15.03.07,0,.23-.02.36-.03,1.04-.05,2.31-.34,3.5-.57,1.22-.31,2.44-.56,3.66-.88,5.36-1.36,10.71-2.96,16.01-4.66l4.89-1.63,4.85-1.71c4.87-1.8,9.78-3.62,14.47-5.75,1.84-.8,3.59-1.73,5.35-2.63,1.73-.94,3.46-1.89,5.17-2.87.74-.44,1.45-.9,2.21-1.33,2.79-1.6,3.72-1.99,4.88-1.48.26.11.55.18.75.32.67.45-.12,1.72-2.13,3.16-5.97,4.2-12.91,7.37-19.92,10.28-5.21,2.16-10.55,4.05-15.88,5.89l-.04-.08Z"/><path class="cls-3" d="m448.24,324.17c-.41.82-1,1.51-1.69,2.1-.89.77-1.94,1.4-2.96,1.99-34.49,19.86-72.12,33.56-109.63,46.85-13.89,4.92-27.91,9.82-42.34,12.66-4.03-1.46-25.59-41.88-33.1-58.12-2.09,1.17-5.18,2.34-7.27,3.52,6.5,20.12,17.21,39.21,29.63,56.33-10.68,5.13-21.56,10.32-33.27,12.16-11.71,1.83-24.58-.14-33.49-7.96-8.62-7.57-12.23-19.22-15.22-30.3-.28-1.04-.56-2.14-.31-3.19.55-2.36,3.32-3.33,5.66-3.97,19.49-5.26,37.86-14.67,53.52-27.42,4.58,5.59,13.39,3.95,20.27,1.75,46.65-14.97,92.54-32.92,135.07-57.24,1.92-1.1,3.93-2.24,6.14-2.31,4.07-.12,7.28,3.31,9.71,6.57,8.73,11.73,15.26,25.08,19.16,39.17.67,2.44,1.24,5.15.12,7.41Z"/><path class="cls-3" d="m176.08,355.59c.44,1.14.91,2.29,1.5,3.37.22.39.47.76.71,1.14.73,1.41,1.58,2.77,2.62,3.98.45.56,1.01.99,1.53,1.46.35.29.72.53,1.07.82.36.27.73.51,1.04.9.2.23.1.35-.24.46-.17.05-.4.11-.68.16-.27.03-.55-.02-.82-.13-1.88-.81-3.44-2.21-4.59-3.86-.67-.99-1.56-1.88-2.19-2.92-.68-1.15-1.3-2.33-1.83-3.55-.34-.74-.62-1.51-.93-2.26-.44-1.15-.8-2.33-1.18-3.49-.29-.9-.71-1.75-.98-2.65-.07-.2-.15-.39-.19-.59-.16-.76-.04-1.04.51-1.3.13-.06.25-.13.38-.18.43-.15.87.08,1.14.58.82,1.45,1.34,3,1.92,4.56.38,1.17.79,2.34,1.25,3.48l-.06.03Z"/><path class="cls-3" d="m191.01,368.79s-2.61-.58-2.35-2.1c.42-2.46,3.37-4.98,7.02-6.64,4.54-2.07-17.43,7.02-13.38,9.56s8.71-.82,8.71-.82Z"/><path class="cls-3" d="m222.31,301.61c-1.95-.23-3.89-.52-5.83-.84-.71-.11-1.42-.18-2.12-.31-2.48-.46-4.92-1.11-7.34-1.77-1.08-.27-2.16-.57-3.22-.88-1.35-.43-2.73-.8-3.99-1.51-.4-.21-.32-.24.08-.27.28-.02.56-.05.83-.07.34-.04.73-.04,1.12.05l2.12.36c.7.13,1.42.19,2.11.36,1.39.31,2.78.63,4.17.97,1.67.41,3.46.57,5.19.83,1.91.28,3.83.52,5.76.71,1.19.11,2.37.22,3.56.28,1.8.11,3.62.17,5.41.15,1.39-.03,2.75-.27,4.12-.38.3-.03.6-.06.9-.09,1.12-.07,1.5.06,1.79.57.07.12.15.23.19.34.15.39-.29.77-1.12,1.01-2.46.76-5.14.95-7.8.95-1.98-.05-3.97-.21-5.94-.4v-.06Z"/><path class="cls-3" d="m253.76,289.33l-.43.79-.52.75-1.03,1.48c-.37.48-.81.91-1.21,1.36-.41.45-.81.9-1.3,1.27-.69.55-1.28,1.23-2.06,1.65-2.6,1.71-5.61,2.69-8.62,2.95l-2,.16c-.66,0-1.33,0-1.99,0-1.69-.02-3.37-.3-5-.69-.51-.12-.42-.19.03-.26.45-.07,1.28-.18,2.23-.19.84-.03,1.68-.1,2.5-.1.82-.08,1.65-.08,2.46-.2,1.63-.21,3.23-.51,4.78-.97,1.93-.44,3.63-1.62,5.22-2.78.81-.74,1.68-1.41,2.35-2.29.34-.43.76-.8,1.06-1.27l.94-1.38c.42-.55.69-1.19,1.02-1.79.3-.62.68-1.2.9-1.87.36-.99.81-1.95,1.09-2.96.28-1.02.57-2.03.81-3.06.13-.81.23-1.61.32-2.42.1-.8.17-1.6.19-2.41.01-.36.02-.71.06-1.06.13-1.32.33-1.73.91-1.97.13-.06.27-.13.39-.16.43-.1.73.48.77,1.49.07,1.5.07,3.05-.2,4.59-.11.78-.23,1.56-.36,2.34-.17.78-.39,1.55-.59,2.33-.16.57-.29,1.16-.5,1.72l-.65,1.69c-.39,1.14-.98,2.21-1.53,3.29l-.05-.02Z"/><path class="cls-3" d="m225.03,219.92c-.89.22-1.79.42-2.67.61-.32.07-.64.18-.96.24-1.14.24-2.3.42-3.44.64-.51.1-1.01.23-1.5.36-.64.16-1.24.42-1.93.39-.21,0-.22-.11-.1-.32.13-.18.35-.59.71-.69,1.27-.45,2.56-.83,3.89-1.08.8-.15,1.59-.41,2.39-.63.88-.23,1.75-.45,2.62-.7.54-.15,1.07-.31,1.59-.48.79-.27,1.6-.53,2.33-.9.58-.28,1.09-.66,1.58-1.04.11-.08.21-.17.32-.25.39-.3.58-.3.92-.03.08.06.16.12.24.19.24.23.22.57-.07.89-.87.94-2.05,1.52-3.23,1.97-.88.34-1.78.59-2.67.84v-.03Z"/><path class="cls-3" d="m228.02,213.07s11-.87,11.41,1-8.03,4.79-8.03,4.79l-3.39-5.79Z"/><path class="cls-3" d="m176.95,237.27c-.45-.59-.94-1.18-1.5-1.7-.2-.2-.44-.34-.65-.53-.75-.64-1.56-1.25-2.45-1.72-.39-.22-.81-.39-1.21-.57-.53-.2-1.08-.38-1.61-.6-.17-.08-.12-.18.06-.27.18-.09.5-.18.84-.13.6.11,1.2.25,1.79.45.58.22,1.13.49,1.65.84.62.4,1.31.75,1.93,1.19.68.48,1.3,1.05,1.89,1.65.34.39.67.78.97,1.2.47.62.84,1.32,1.23,1.99.27.54.61,1.04.83,1.62.05.13.12.24.14.38.11.5.04.68-.32.84-.08.04-.16.08-.24.11-.28.09-.56-.06-.73-.35-.53-.84-.85-1.71-1.37-2.55-.38-.62-.77-1.25-1.27-1.81l.03-.03Z"/><path class="cls-3" d="m136.61,159.61s-17.92-7.52-29.93-4.35c-10.98,2.9-17.77,9.58-19.22,11.4-.71.89-2.42-4.07-8.12-5.48-5.91-1.47-17.9,2.86-23.89,14.54,0,0-3.9,12.55-3.13,17.95.77,5.4,4.44,10.41,7.54,10.59,3.11.18,11.34-2.91,11.34-2.91,0,0-1.48,6.7-2.62,11.07-1.14,4.37-2.5,21.91-2.79,25.88-.28,3.97-2.11,16.15-7.34,19.72-5.23,3.57-11.86,11.36-13.84,15.88-1.98,4.52-4.29,8.48,0,14.4,4.29,5.92,12.91,5.21,17.01,4.84s5.62-2.59,8.59,1.19c2.96,3.78,4.41,13.31,7.13,17.13,2.71,3.82,13.12,10.92,20.83,11.24,7.71.32,13.42-3.26,16.54-6.67,3.12-3.41,6.13-10.05,12.63-9.72,6.49.33,11.8-1.52,15.77-3.5,3.97-1.98,7.15-4.52,6.86-10.55s-4.81-20.7-3.9-25.2c.91-4.5,6.62-11.9,7.97-18.21,1.35-6.32,3.76-15.65,0-19.33-3.76-3.68-16.03-15.12-18.05-16.14s-14.01-3.33-14.01-3.33c0,0-10.09-4.08-9.41-8.7.68-4.62,2.81-7.88,5.54-8.04,2.72-.15,9.63,3.09,10.64.36,1.02-2.73.06-6.24-.31-7.36-.37-1.12-1.31-11.82-.67-14.17s7.12-10.96,7.12-10.96l1.73-1.57Z"/><path class="cls-3" d="m460.42,312.38l4.53-2.21c.55-.27,1.07-.61,1.63-.87,1.98-.92,3.98-1.81,5.99-2.68.89-.39,1.78-.78,2.65-1.18,1.13-.49,2.23-1.08,3.5-1.22.39-.06.42.16.24.56-.09.2-.23.46-.41.73-.18.29-.41.55-.72.71-1.07.62-2.13,1.23-3.2,1.85-1.07.6-2.21,1.09-3.35,1.6-1.38.58-2.65,1.5-3.97,2.26-1.46.85-2.93,1.68-4.43,2.48l-2.78,1.48c-1.4.75-2.85,1.44-4.23,2.2-1.08.6-2.07,1.32-3.12,1.97-.23.15-.45.31-.69.43-.91.46-1.29.38-1.82-.35-.12-.17-.25-.33-.36-.5-.34-.6-.19-1.27.39-1.72,1.72-1.33,3.67-2.31,5.65-3.33,1.47-.75,2.98-1.48,4.46-2.27l.04.06Z"/><path class="cls-3" d="m459.04,280.78c.53-2.18,1.08-4.35,1.75-6.55.17-.55.35-1.1.54-1.66.21-.58.33-.98.81-2.04.83-1.8,1.95-3.25,3.69-3.1,1.18.2,2.24.79,3.03,1.93.22.24.36.59.55.87.17.3.37.6.49.92l.29.72c.09.22.14.43.21.64.87,3.02,1.09,5.94,1.19,8.86.08,2.91.01,5.81-.19,8.69-.17,2.56-.39,5.12-.74,7.64-.22,1.62-.5,3.25-.91,4.85-.21.8-.51,1.59-.85,2.36-.15.39-.37.76-.56,1.14-.21.37-.51.7-.77,1.03-.75.79-.7.58-.56-.3.06-.94.03-2.5.25-4.26.59-3.08.87-6.29,1.02-9.5.18-3.21.28-6.45.26-9.69-.01-1.94-.2-3.91-.54-5.84-.17-.96-.36-1.92-.62-2.83-.12-.46-.27-.9-.41-1.33-.07-.21-.17-.43-.23-.61-.03-.11-.06-.16-.1-.25-.15-.32-.38-.75-.8-.79-.38.12-.53.56-.72.93l-.11.27-.14.37-.27.75c-.18.51-.34,1.02-.5,1.54-.32,1.04-.61,2.1-.89,3.17-.69,2.63-1.31,5.3-1.9,7.98-.9,4.06-1.79,8.14-2.8,12.21-.2.79-.41,1.58-.65,2.39-.12.4-.26.81-.43,1.23-.17.41-.37.88-.79,1.36-1.23,1.35-2.7,2.34-4.27,3.07-.69.33-1.36.62-2.07.85-2.63.83-3.52.63-4.25-.1-.17-.17-.37-.32-.48-.5-.37-.56.57-1.38,2.3-2.03,1.28-.48,2.53-.99,3.63-1.61.55-.31,1.07-.64,1.54-1.01.23-.19.46-.37.67-.58.11-.1.21-.2.31-.31l.13-.14s0-.02.01-.03c-.02.02.12-.24.21-.49.1-.27.2-.56.3-.88.2-.63.38-1.31.55-2,.35-1.39.66-2.83.97-4.28.91-4.31,1.8-8.71,2.78-13.12h.09Z"/><path class="cls-3" d="m322.47,313.15c8.71-3.25,17.37-6.64,25.97-10.19,3.13-1.3,6.23-2.69,9.35-4.02,11.02-4.65,21.95-9.51,32.72-14.71,4.76-2.33,9.51-4.78,14.15-7.25,5.98-3.16,11.77-6.68,17.91-9.59,2.05-.69,1.72-.69.45.65-.63.69-1.59,1.56-2.74,2.64-1.18,1.03-2.64,2.11-4.28,3.19-5.94,3.61-11.99,7.04-18.17,10.23-6.21,3.13-12.53,6.07-18.93,8.89-7.66,3.36-15.52,7.1-23.38,10.46-8.64,3.71-17.35,7.24-26.12,10.65-5.39,2.1-10.81,4.13-16.24,6.13-8.22,3.02-16.56,5.86-24.84,8.55-3.22,1.04-6.41,2.08-9.63,3.04-3.22.97-6.45,1.87-9.87,2.45-.74.15-1.54.21-2.33.29-.37.06-.85.02-1.3,0-.46-.02-.92-.06-1.32-.17-3.06-.77-4.72-2.1-5.7-3.1-.98-1.03-1.26-1.89-1.25-2.68,0-.35-.03-.78.05-1.02.15-.42.64-.23,1.46.26.83.47,1.92,1.34,3.5,2.12.58.29,1.18.53,1.79.71.31.09.61.16.92.23l.46.08h.4c.47.05,1.21-.07,1.86-.13.67-.08,1.4-.25,2.1-.36,2.86-.6,5.8-1.39,8.74-2.24,5.89-1.7,11.85-3.65,17.8-5.66,8.83-3.01,17.68-6.18,26.44-9.53l.04.08Z"/><path class="cls-3" d="m72.36,293.04c1.04.93,1.86,2.04,2.46,3.16.61,1.12,1.08,2.27,1.42,3.41.35,1.13.63,2.26.86,3.36.23,1.08.42,2.26.63,3.13.84,3.75,2.93,7.16,5.95,9.61,6.01,4.98,15.03,6.26,22.47,3.52,2.71-1.02,5.19-2.58,7.23-4.62,2.09-2.06,3.98-4.67,6.54-6.95,1.13-1,2.42-1.93,3.86-2.62,1.43-.71,3.03-1.14,4.56-1.33,3.07-.38,5.9-.04,8.53-.1,1.31-.02,2.56-.13,3.72-.44,1.14-.28,2.22-.84,3.21-1.51,1.94-1.36,3.32-3.42,4.01-5.84.68-2.42.8-5.07.6-7.71-.2-2.64-.74-5.3-1.5-7.87-.38-1.26-.78-2.72-1.16-4.07-.17-.7-.29-1.41-.44-2.11l-.21-1.06-.13-1.08c-.38-2.87-.33-5.91.53-8.78.73-2.55,2.03-4.85,3.33-6.96,1.31-2.12,2.58-4.15,3.51-6.32,1.89-4.31,2.45-9.15,1.39-13.68-1.29-5.87-4.98-11.02-9.32-15.27-2.2-2.13-4.64-4.02-7.23-5.68-1.3-.81-2.64-1.57-4.02-2.25-1.37-.68-2.76-1.34-4.2-1.86-1.8-.66-2.62-.83-2.55-.95.07-.09,1.03-.13,2.72.04,1.68.2,4.14.57,6.86,1.72,2.73,1.1,5.82,2.76,8.77,5.13,2.61,2.09,5.04,4.47,7.07,7.21,2.01,2.75,3.69,5.81,4.73,9.16.51,1.67.9,3.39,1.05,5.15.12.88.1,1.76.13,2.64-.05.88-.04,1.77-.18,2.64-.4,3.5-1.6,6.91-3.25,9.91-1.63,3-3.56,5.57-4.7,8.21-.62,1.31-.96,2.67-1.23,4.06-.05.71-.18,1.41-.18,2.13.03.73-.03,1.45.06,2.19.09.74.15,1.48.26,2.22l.45,2.24c.15.75.4,1.49.59,2.23.2.74.41,1.48.66,2.32.94,3.24,1.54,6.59,1.65,10.02.06,2.05-.1,4.16-.56,6.26-.45,2.09-1.28,4.21-2.68,6.01-1.37,1.81-3.24,3.23-5.27,4.18-2.13.93-4.38,1.21-6.46,1.25-4.14.09-8.04-.45-11.12,1-3.16,1.39-5.53,4.46-8.23,7.46-.75.83-1.55,1.65-2.41,2.44-.44.39-.89.77-1.36,1.12-.46.37-.94.7-1.43,1.02-1.95,1.29-4.09,2.29-6.31,2.98-4.45,1.37-9.2,1.55-13.72.63-4.52-.91-8.85-3.03-12.24-6.27-1.69-1.61-3.12-3.52-4.18-5.61-.53-1.05-.99-2.13-1.32-3.24-.17-.56-.35-1.11-.46-1.69-.13-.57-.25-1.14-.34-1.65-.49-2.59-1.05-5.13-2.19-7.24-.57-1.05-1.29-1.95-2.18-2.61-.89-.66-1.94-1.06-3.09-1.24-2.32-.37-4.77.3-7.38.99-2.59.69-5.56,1.31-8.49.72-1.1-.18-2.16-.53-3.21-.97-1.02-.49-2.01-1.06-2.87-1.82-1.73-1.48-3-3.44-3.72-5.52-1.48-4.19-1.17-8.75.41-12.77,1.62-4.04,4.48-7.27,7.37-10.15,2.89-2.89,5.98-5.52,8.31-8.58,1.8-2.4,3.17-5.11,4.17-7.94.99-2.85,1.61-5.82,2.08-8.82.93-6.02,1.18-12.18,2.08-18.41.4-2.74.86-5.44,1.64-8.18,1.46-5.08,3.27-8.22,4.76-10.18,1.56-1.93,2.73-2.81,3.84-3.31.51-.22,1.12-.55,1.47-.61,1.29-.09-1.65,2.9-4.55,9.34-2.12,4.82-3.1,10.18-3.75,15.7-.66,5.53-.99,11.28-1.99,17.14-.98,5.83-2.82,11.95-6.59,17.13-1.91,2.62-4.11,4.71-6.2,6.76-2.11,2.04-4.14,4.01-5.85,6.11-1.26,1.56-2.32,3.19-3.05,4.92-.74,1.72-1.13,3.56-1.25,5.41-.19,3.69,1.11,7.44,3.78,9.36.68.46,1.4.88,2.21,1.14.4.15.84.24,1.26.36.43.05.85.17,1.29.18,1.73.16,3.56-.18,5.61-.7,2.04-.5,4.36-1.22,7.02-1.25,1.31-.04,2.67.17,4.02.59,1.35.4,2.64,1.19,3.69,2.13l-.04.09Z"/><path class="cls-3" d="m50,191.58c-.17-2.87.1-5.71.7-8.5.32-1.39.73-2.76,1.27-4.11.55-1.34,1.15-2.55,1.8-3.78.94-1.78,1.89-3.55,3.03-5.21,2.01-2.91,4.3-5.65,6.93-8.06,2.61-2.42,5.67-4.45,9.09-5.7.74-.31,1.54-.5,2.32-.7.78-.25,1.6-.29,2.41-.41,1.63-.21,3.4-.03,4.98.58,1.01.41,1.97.95,2.81,1.64.83.7,1.57,1.51,2.14,2.42.55.92.97,1.92,1.2,2.94.15.5.19,1.03.27,1.54.02.52.03,1.04-.02,1.54-.15,1.27-.32,1.06-.8.09-.55-.97-1.5-2.6-2.68-4.06-3.8-6.05-12.24-3.38-18.02,1.11-1.84,1.33-3.46,3.06-4.97,4.87-1.51,1.82-2.86,3.81-4.1,5.83-1.36,2.21-2.61,4.57-3.56,6.91-.87,2.36-1.4,4.92-1.56,7.48-.2,3.15.08,6.39,1.18,9.28.84,2.16,2.21,4.13,4.17,5.16,1.96,1.01,4.37,1.05,6.62.41,1.75-.48,3.44-1.27,4.98-2.24,1.55-.97,3-2.13,4.48-3.31.65-.52,1.29-1.05,1.98-1.56,2.57-1.9,3.68-2.2,4.66-1.87.22.08.49.13.65.23.53.37-.31,1.4-2,2.86-2.52,2.16-5.09,4.63-8.42,6.6-1.67.99-3.45,1.77-5.41,2.33-1.95.54-4.15.79-6.38.34-1.65-.34-3.26-1.12-4.55-2.2-1.3-1.08-2.29-2.42-3.02-3.8-1.46-2.79-2.06-5.74-2.27-8.64h.08Z"/><path class="cls-3" d="m162.3,169.83c.65.17,1.31.36,1.97.6.34.14.67.27,1,.43.34.21.66.36.98.62.47.33.98.7,1.35,1.24.15.26.31.46.42.76.13.3.18.57.23.83.07.51.08,1,.03,1.45-.08.92-.31,1.76-.6,2.57-.28.71-.58,1.4-.95,2.04-.44.84-1.12,1.57-1.93,2.06-.25.16-.31.03-.28-.28.04-.3.09-.81.26-1.27.68-1.56,1.07-3.09,1.33-4.65.07-.46.03-.95-.11-1.31-.08-.19-.13-.29-.25-.41-.12-.12-.22-.26-.38-.36-.29-.27-.75-.48-1.22-.69-.49-.21-1.02-.39-1.58-.53-.69-.18-1.41-.33-2.15-.43-1.12-.16-2.26-.32-3.41-.35-.89-.02-1.79.13-2.71.19-.2.01-.4.05-.61.05-.75-.06-.97-.32-1-1.16,0-.19-.03-.39-.02-.58.03-.64.39-1.13.92-1.28,1.57-.41,3.17-.37,4.86-.22,1.25.12,2.53.32,3.85.58v.07Z"/><path class="cls-3" d="m198.14,168.41c.84.37,1.64.85,2.42,1.33.28.19.59.3.86.51.96.7,1.8,1.53,2.58,2.37.35.37.68.76,1.03,1.12.43.47.89.94,1.12,1.57.07.19-.22.37-.6.46-.38.08-.87.1-1.12-.13-.91-.81-1.8-1.52-2.57-2.46-.48-.55-1.17-.87-1.8-1.24-.69-.41-1.42-.79-2.17-1.11-.46-.2-.93-.41-1.42-.57-.73-.25-1.48-.5-2.25-.6-.6-.1-1.21,0-1.81,0-.13,0-.26.02-.4.01-.49-.04-.63-.22-.68-.81-.01-.14-.03-.27-.03-.4,0-.45.23-.8.63-.92,1.17-.4,2.39-.23,3.58.01.89.19,1.77.48,2.64.81l-.02.06Z"/><path class="cls-3" d="m171.63,203.02c-.2-4.03-1.06-8.11-2.78-11.82l-1.03-2c-.39-.64-.8-1.27-1.17-1.93-2.8-4.53-6.52-8.54-10.57-12.21-1.81-1.62-3.71-3.16-5.6-4.67-1.21-.98-2.48-1.89-3.65-2.93l-1.76-1.55c-.59-.51-1.09-1.15-1.64-1.71-.65-.74-.5-.72.32-.43.5.16,1.09.35,1.73.55.69.26,1.45.63,2.22,1.11,1.37.83,2.67,1.76,3.95,2.71,1.29.95,2.59,1.9,3.82,2.93,2.47,2.07,4.85,4.3,7.05,6.74,2.61,2.91,5.37,5.98,7.43,9.5,2.3,3.84,3.73,8.2,4.37,12.6.38,2.72.46,5.49.19,8.22-.43,4.15-1.78,8.17-3.69,11.82-1.5,2.82-3.25,5.47-5.4,7.84-.45.54-.92,1.05-1.44,1.52-.48.45-.88.81-1.25,1.09-.37.26-.69.45-.98.58-.57.25-1,.25-1.47.08-.21-.08-.46-.13-.63-.24-.57-.38-.09-1.44,1.19-2.68,3.64-3.83,7.02-8.18,8.85-13.28,1.41-3.73,2.09-7.79,1.87-11.85h.07Z"/><path class="cls-3" d="m100.98,152.83c3-1.43,6.09-2.49,9.41-3.1,1.19-.23,2.38-.45,3.58-.54,4.25-.22,8.45.28,12.45,1.42.88.27,1.78.49,2.65.79.44.15.88.26,1.31.42l1.28.51c1.08.47,2.15.95,3.17,1.54,1.01.61,1.95,1.34,2.81,2.15.54.5.29.65-.42.63-.35-.01-.82-.07-1.35-.15-.55-.06-1.16-.17-1.75-.37-.54-.17-1.05-.38-1.57-.56l-1.59-.49c-1.08-.26-2.13-.6-3.18-.93-2.12-.63-4.29-1.08-6.5-1.54-2.65-.52-5.49-.35-8.19,0-1.5.17-2.96.5-4.4.88-1.46.45-2.91.93-4.31,1.54-1.74.72-3.42,1.58-5.02,2.58-2.41,1.52-4.72,3.28-6.63,5.4-1.51,1.62-2.6,3.52-3.68,5.38-.25.41-.44.83-.67,1.25-.89,1.53-1.27,1.96-2.25,1.93-.22,0-.44.02-.64-.02-.68-.12-.83-1.04-.38-2.41,1.39-4.02,4.14-7.77,7.52-10.77,2.49-2.26,5.34-4.12,8.33-5.62l.04.07Z"/><path class="cls-3" d="m177.83,232.79c.87,1,1.64,2.09,2.28,3.24.22.43.53.79.72,1.23.7,1.54,1.11,3.17,1.39,4.77.13.71.26,1.41.39,2.12.02.46.08.91.07,1.37-.04.46-.14.91-.27,1.36-.09.28-.34.23-.67,0-.32-.23-.8-.63-.97-1.09-.32-.81-.51-1.59-.65-2.39-.17-.79-.35-1.58-.53-2.4-.1-.49-.33-.94-.56-1.4-.28-.43-.53-.87-.82-1.29-.3-.47-.6-.94-.95-1.37-.32-.46-.69-.89-1.05-1.32-.47-.52-.95-1.03-1.49-1.49-.81-.69-1.65-1.39-2.62-1.86-.73-.4-1.6-.5-2.38-.73-.18-.04-.37-.05-.54-.1-.64-.2-.74-.5-.54-1.43.05-.21.08-.42.14-.63.19-.7.68-1.14,1.27-1.12,1.76,0,3.37.82,4.84,1.83.54.38,1.08.78,1.57,1.24.51.43.98.91,1.44,1.4l-.05.06Z"/><path class="cls-3" d="m183.66,250.21c2.6.93,5.13,1.99,7.61,3.07.91.39,1.84.69,2.74,1.09,3.16,1.39,6.31,2.75,9.56,3.84,1.45.43,2.9.94,4.38,1.23.94.21,1.9.41,2.84.64.94.25,1.88.54,2.82.86.58.21.48.41-.08.65-.55.22-1.58.59-2.76.63-.26,0-.52.02-.78,0l-.76-.1-1.52-.23c-1.02-.14-2.02-.34-3.01-.58-1-.21-1.98-.51-2.94-.87-.96-.35-1.93-.69-2.86-1.11-2.25-.96-4.67-1.7-6.97-2.6-2.53-.99-5.03-2-7.55-2.9-1.55-.58-3.12-1.07-4.69-1.52-2.4-.63-4.84-1.24-7.3-1.46-1.91-.24-3.81-.06-5.69-.03-.42.03-.83.1-1.24.11-1.55.07-2.05-.24-2.4-1.09-.08-.19-.19-.38-.24-.57-.08-.32.03-.61.32-.87.29-.26.74-.5,1.34-.59,3.52-.67,7.33-.39,11.06.23l2.08.39,2.05.51c1.37.32,2.69.79,4.04,1.19l-.02.08Z"/><path class="cls-3" d="m214.76,253.7c-.63-1.97-1.31-3.93-2.03-5.92-.26-.72-.62-1.41-.85-2.15-.8-2.62-1.56-5.28-2.1-8-.15-.59-.25-1.2-.35-1.81-.1-.61-.24-1.2-.32-1.8-.08-.78-.23-1.55-.25-2.34,0-.39.03-.79.06-1.18l.05-.59c.02-.2.1-.39.15-.58.15-.48.19-.41.47-.01.33.4.82,1.11,1.01,1.94.71,2.96,1.53,5.79,2.28,8.79.43,1.8,1.35,3.53,2.04,5.31.74,1.97,1.5,3.96,2.2,5.99.45,1.24.84,2.51,1.24,3.77.3.96.52,1.95.78,2.92.19.99.45,1.97.63,2.96.13.77.32,1.52.49,2.28l.38,2.31c.06.34.09.68.09,1.03,0,1.29-.19,1.7-.9,1.94-.16.05-.32.13-.48.15-.54.09-.99-.44-1.17-1.3-.22-1.29-.55-2.58-.75-3.88-.32-1.3-.56-2.61-.94-3.91-.52-1.94-1.12-3.9-1.77-5.86l.07-.03Z"/><path class="cls-3" d="m220.93,194.07c-.77-3.36-1.73-6.65-3.18-9.68-.53-1.1-1.19-2.13-1.83-3.16-2.25-3.61-5.5-6.7-9.45-8.54-.88-.41-1.79-.78-2.72-1.09-.93-.33-1.87-.62-2.81-.87-2.44-.66-4.94-.96-7.4-1.82-.77-.28-.66-.36.05-.61.71-.27,2.05-.79,3.58-.71,2.67.29,5.36.72,7.97,1.6,1.29.47,2.57,1.02,3.8,1.69.62.33,1.22.7,1.81,1.1.58.41,1.13.84,1.68,1.27,2.56,2.15,5.05,4.64,6.79,7.57,1.92,3.21,3.14,6.71,4.08,10.19.58,2.15,1.05,4.31,1.5,6.46.69,3.25,1.27,6.52,2.17,9.64.71,2.42,1.68,4.7,2.86,6.79.26.47.54.9.82,1.34.52.83.77,1.42.9,1.89.14.46.1.82-.05,1.22-.07.18-.12.39-.21.54-.15.25-.44.29-.86.11-.41-.18-.98-.55-1.53-1.16-1.63-1.83-2.75-4.08-3.65-6.37-.89-2.3-1.54-4.67-2.1-7.03-.83-3.5-1.46-7-2.3-10.37l.07-.02Z"/><path class="cls-3" d="m176.33,144.87l-8.88-17.49c-1.09-2.12-2.26-4.2-3.34-6.33l-11.32-22.55c-1.65-3.35-3.38-6.68-5.07-9.98-2.09-4.28-4.43-8.47-5.59-13.22-.28-1.56-.12-1.29.56-.23.38.52.93,1.24,1.66,2.08.68.86,1.42,1.89,2.14,3.05l3.54,6.34c1.16,2.12,2.27,4.28,3.4,6.43,1.11,2.16,2.25,4.31,3.32,6.49,1.06,2.2,2.12,4.4,3.18,6.6,2.51,5.29,5.49,10.61,8.25,15.93l9.05,17.57c1.85,3.61,3.7,7.22,5.55,10.83,2.8,5.46,5.62,10.96,8.4,16.38,2.19,4.21,4.49,8.25,6.67,12.42.48.92.98,1.8,1.43,2.75,1.7,3.49,1.98,4.75,1.48,5.85-.11.25-.19.55-.33.73-.46.58-1.58-.63-2.92-3.09-4.01-7.29-8.12-15.08-12.18-22.94-3.01-5.85-6.04-11.72-9.05-17.58l.07-.04Z"/><path class="cls-3" d="m165.68,141.68l-6.91-13.73c-.85-1.67-1.79-3.28-2.64-4.95-2.99-5.87-6-11.74-9.12-17.55-1.39-2.57-2.82-5.14-4.26-7.66-.91-1.63-1.92-3.2-2.73-4.89l-1.24-2.52c-.42-.84-.7-1.75-1.06-2.62-.41-1.11-.31-.98.43-.27.37.35.92.84,1.61,1.42.65.6,1.32,1.36,1.97,2.23,4.39,6.27,8.03,12.98,11.49,19.85,2.06,4.12,4.53,8.22,6.76,12.36,2.45,4.56,4.85,9.14,7.19,13.76,1.44,2.84,2.87,5.69,4.31,8.53,2.18,4.3,4.28,8.67,6.47,12.93,1.7,3.31,3.53,6.48,5.27,9.72.39.71.75,1.42,1.09,2.16,1.26,2.76,1.44,3.74.98,4.67-.1.21-.18.46-.3.62-.4.51-1.45-.36-2.64-2.24-.87-1.4-1.81-2.79-2.62-4.26-.82-1.47-1.62-2.96-2.41-4.47-1.6-3.02-3.15-6.11-4.73-9.2-2.32-4.6-4.66-9.22-6.98-13.83l.07-.05Z"/><path class="cls-3" d="m247.89,294.44c2.4-1.82,3.97-4.66,5.09-7.73,1.1-3.09,1.68-6.46,1.99-9.85.19-2.49.22-4.99.18-7.51-.07-8.88-1.14-17.83-2.77-26.66-.73-3.92-1.66-7.83-2.69-11.65-.68-2.45-1.37-4.9-2.05-7.36l-.51-1.84-.46-1.86-.46-1.86c-.15-.62-.18-1.28-.31-1.91-.23-1.6-.21-1.39.61-.25.91,1.11,2.51,3.22,3.57,6.01.44,1.24.89,2.48,1.31,3.73.43,1.25.74,2.53,1.1,3.79.69,2.54,1.32,5.1,1.91,7.67,1.15,5.15,2.08,10.36,2.7,15.64.72,6.31,1.53,12.9,1.41,19.47-.07,3.6-.36,7.23-1.08,10.82-.73,3.57-1.9,7.16-4,10.34-2.7,3.95-6.94,6.44-11.33,7.62-3.34.92-6.79,1.12-10.16.99-3.38-.14-6.7-.63-9.96-1.27-5.06-1.02-9.95-2.29-14.78-3.88-1.06-.35-2.11-.67-3.17-1.05-1.96-.71-3.21-1.27-4.03-1.8-.83-.52-1.24-.98-1.5-1.53-.12-.25-.3-.53-.34-.74-.16-.74,1.65-.65,4.57.18,8.55,2.65,17.49,5.56,26.58,6.46,1.68.16,3.36.25,5.02.2,1.66-.02,3.31-.17,4.9-.47,1.6-.28,3.15-.72,4.6-1.35,1.45-.62,2.82-1.4,4.01-2.4l.06.06Z"/><path class="cls-3" d="m169.66,344.27l-1.98-10.61c-.24-1.29-.59-2.54-.83-3.82-.88-4.5-1.7-9.03-3.03-13.41-.25-.99-.62-1.93-.96-2.89-.35-.95-.63-1.93-1.03-2.85-.49-1.2-1.02-2.37-1.45-3.6-.25-.6-.53-1.18-.73-1.81-.2-.63-.4-1.25-.61-1.88-.24-.79-.23-.68.22-.14.23.27.58.63,1.04,1.07.22.22.49.45.72.72.22.27.45.57.67.89.78,1.13,1.35,2.36,1.97,3.57.31.6.61,1.22.86,1.85.27.62.54,1.25.77,1.89.5,1.27.89,2.56,1.28,3.86l.57,1.96.47,1.98c.18.79.38,1.59.6,2.38.2.8.41,1.6.61,2.4.45,1.6.83,3.22,1.18,4.84.76,3.55,1.43,7.1,2.14,10.64.45,2.17.89,4.35,1.41,6.5.76,3.26,1.62,6.51,2.71,9.64.45,1.2.96,2.37,1.47,3.53.52,1.16,1.15,2.25,1.71,3.38.25.5.52.97.8,1.45.25.45.45.83.59,1.16.13.34.17.65.2.9.04.52-.05.89-.26,1.27-.09.17-.17.37-.27.5-.32.42-1.18-.08-2.28-1.3-2.69-3.92-4.67-8.58-6.02-13.34-1.03-3.54-1.85-7.13-2.59-10.69l.07-.02Z"/><path class="cls-3" d="m187.58,365.2c-1.37.67-2.78,1.44-3.71,2.26-.12.07-.16.22-.25.34-.09.12-.14.29-.09.44.05.16.18.26.34.34.08.04.17.07.27.1.06.02.08.03.17.04.11.03.23.04.35.06.47.07.97.09,1.48.09.9,0,1.81-.14,2.7-.32,1.11-.34,2.34-.32,3.51-.56.35-.08.4.11.18.45-.23.29-.65.89-1.26,1.34l-.83.55c-.28.18-.59.26-.88.39-.6.23-1.21.43-1.85.6-.63.17-1.28.29-1.96.35-.34.03-.69.05-1.04.04-.19,0-.33,0-.56-.03-.14-.01-.29-.02-.42-.02-.14-.02-.27-.05-.4-.07l-.95-.17c-.29-.12-.58-.21-.85-.36-.54-.27-.97-.67-1.28-1.17-.64-1-.62-2.34-.02-3.39.16-.29.35-.57.57-.83.11-.13.21-.27.33-.39l.34-.34c.37-.33.74-.62,1.12-.88.75-.53,1.51-.96,2.28-1.38.94-.5,1.9-.95,2.85-1.38,1.44-.66,2.92-1.21,4.34-1.85,1.11-.49,2.14-1.11,3.25-1.61.25-.11.48-.24.74-.34.96-.33,1.38-.2,1.78.56.09.17.19.34.26.52.2.61-.02,1.18-.58,1.57-1.72,1.16-3.61,2.21-5.58,3.07-1.45.67-2.91,1.31-4.28,2.06l-.05-.08Z"/><path class="cls-3" d="m243.71,404.02c-5.93.62-12.08.47-17.97-1.19-2.15-.57-4.26-1.37-6.26-2.39-3.48-1.89-6.55-4.53-8.94-7.63-2.36-3.07-4.21-6.39-5.91-9.77-1.46-3.02-2.88-6.08-3.99-9.21-.73-2-1.41-4.04-1.94-6.11-.28-1.03-.51-2.08-.69-3.14-.13-1.07-.31-2.12-.33-3.2.09-1.36.22-1.19.92-.18.35.5.74,1.22,1.22,2.08.22.43.47.89.7,1.39.22.5.4,1.04.59,1.6.63,2,1.38,3.97,2.15,5.92.4.97.81,1.94,1.23,2.9.38.98.82,1.93,1.23,2.89,1.72,3.82,3.68,7.56,5.97,11.07,2.65,4.23,6.76,7.45,11.4,9.39,5.1,2.15,10.84,2.76,16.53,2.52,3.51-.17,7.02-.65,10.49-1.37,5.25-1.09,10.47-2.63,15.47-4.56,3.89-1.51,7.56-3.32,11.24-5.18.8-.42,1.59-.83,2.4-1.25,3.03-1.51,4.09-1.8,5.17-1.29.24.12.54.21.72.36.62.5-.35,1.67-2.53,2.96-6.44,3.83-13.72,7.06-21.32,9.55-5.65,1.83-11.51,3.25-17.51,3.93l-.02-.08Z"/><path class="cls-3" d="m372.08,359.4c11.35-4.49,22.63-9.19,33.79-14.14,4.07-1.81,8.08-3.74,12.12-5.61,5.28-2.44,10.53-4.94,15.71-7.57,2.58-1.32,5.15-2.66,7.65-4.09,1.25-.71,2.49-1.44,3.67-2.21.59-.38,1.17-.78,1.69-1.18.28-.2.49-.41.73-.61l.24-.25c.04-.07.09-.13.12-.19.03-.11.09-.28.15-.45l.09-.6c.06-.4.05-.86.05-1.31-.05-.92-.16-1.87-.35-2.82-.37-1.91-.92-3.82-1.54-5.72-2.21-6.51-5.19-12.86-8.35-18.98-2.03-3.94-4.24-7.79-6.41-11.66-2.23-3.84-4.45-7.68-6.67-11.51-1.34-2.42-1.08-2.18.66-.53.87.83,2.06,2.05,3.45,3.57,1.35,1.54,2.78,3.46,4.18,5.63,1.09,1.7,2.17,3.4,3.2,5.13,1.02,1.74,2.01,3.49,2.99,5.26,1.94,3.54,3.81,7.12,5.53,10.79,1.74,3.66,3.33,7.42,4.64,11.33.65,1.96,1.23,3.97,1.64,6.08.21,1.05.35,2.15.41,3.3,0,.59.02,1.17-.07,1.81-.05.32-.09.64-.16.97-.1.35-.22.68-.36,1.11-.26.41-.51.89-.81,1.15-.28.32-.51.5-.76.72-.49.41-.97.77-1.45,1.1-.96.67-1.92,1.25-2.89,1.83-4.84,2.8-9.83,5.35-14.87,7.9-5.04,2.54-10.14,5.02-15.24,7.37-11.22,5.16-22.57,10.03-33.99,14.72-7.03,2.88-14.1,5.67-21.19,8.4-10.74,4.13-21.63,8.02-32.45,11.67-8.42,2.83-16.68,5.64-25.22,7.9-1.88.49-3.72,1-5.65,1.41-7.14,1.53-9.6,1.34-11.23.52-.37-.2-.86-.38-1.07-.58-.72-.72,2.11-1.47,7.17-2.58,7.54-1.63,15.2-3.88,22.94-6.27,7.74-2.42,15.54-5.04,23.33-7.81,11.56-4.11,23.11-8.47,34.53-13.07l.05.08Z"/><path class="cls-3" d="m446.21,272.72c.43-1.32.9-2.65,1.45-3.97.57-1.32,1.15-2.64,2.11-3.97.37-.48.78-.98,1.42-1.46.33-.23.73-.46,1.24-.58.49-.13,1.09-.11,1.57.05.46.14.72.32,1.04.55.3.23.55.52.77.82.21.32.38.65.46.89.11.27.19.53.25.78.26,1.01.34,1.94.39,2.86.08,1.84-.01,3.61-.15,5.38-.12,1.57-.23,3.13-.38,4.68-.08.99-.22,1.99-.42,2.97-.1.49-.21.98-.35,1.47-.12.49-.3.97-.56,1.43-.33.57-.48.42-.72-.17-.28-.6-.61-1.6-.56-2.71.03-1.97.2-3.93.32-5.89.11-1.96.19-3.92.2-5.85,0-1.15-.15-2.34-.48-3.3-.08-.23-.18-.45-.28-.61-.06-.12-.11-.18-.19-.25-.04-.03-.08-.06-.14-.08-.03-.04-.04.04-.03-.05,0-.07,0-.02.02.05,0,0-.02.01-.05.02-.18.08-.57.48-.88.95-.33.47-.63,1.01-.92,1.58-.56,1.14-1.05,2.38-1.49,3.64-.54,1.55-1.03,3.14-1.45,4.74-.64,2.43-1.26,4.9-1.7,7.38-.34,1.93-.45,3.85-.65,5.78-.04.43-.05.85-.12,1.28-.26,1.58-.68,2.05-1.52,2.23-.2.04-.4.1-.58.1-.61-.02-.98-.68-1.06-1.88-.04-3.5.55-7.15,1.29-10.79.56-2.7,1.25-5.4,2.05-8.09l.08.02Z"/><path class="cls-3" d="m203.44,202.38c-2.7-1.94-5.73-3.62-8.42-6.25-.98-.98-1.86-2.09-2.49-3.3-1.11-2.15-1.72-4.5-1.78-6.89-.03-1.2.08-2.41.44-3.62.37-1.18,1-2.48,2.34-3.25.15-.08.29-.16.45-.22.17-.06.36-.14.53-.17.36-.09.73-.11,1.08-.09.74.04,1.35.53,1.79,1.11.24.32.36.55.5.79.13.24.25.48.35.72.21.47.4.94.58,1.39.46,1.16.87,2.3,1.38,3.3.24.51.54.94.81,1.34.27.43.55.67.94,1.1.25.37.45.48.43.51-.02.03-.17.05-.57.28-.39.24-1.14.38-1.92.11-.38-.13-.8-.31-1.13-.58-.34-.28-.61-.61-.85-.97-.8-1.28-1.31-2.54-1.77-3.71-.21-.59-.41-1.16-.61-1.66-.1-.26-.21-.47-.3-.67-.07-.11-.06-.12-.06-.12v-.02s-.05-.06-.08-.07c-.12.02-.41.15-.63.44-.49.58-.84,1.63-.99,2.72-.36,2.68.64,5.67,2.2,7.97,1.7,2.52,4.66,4.3,7.5,6.21,1.77,1.17,3.55,2.38,5.22,3.76.64.52,1.25,1.08,1.85,1.65l.87.89c.15.2.32.4.45.6l.34.59c.77,1.56,1.23,3.11,1.71,4.65.72,2.39,1.48,4.71,2.16,7.07.15.52.32,1.02.45,1.55.4,1.97.32,2.64-.27,3.21-.13.13-.26.29-.4.38-.47.3-1.1-.4-1.65-1.78-.84-2.04-1.39-4.2-2.03-6.35-.62-2.14-1.22-4.35-1.99-6.29-.26-.7-.65-1.43-.84-1.65-.5-.54-1.1-1.11-1.69-1.64-1.2-1.06-2.52-2.04-3.91-2.98l.04-.06Z"/><path class="cls-3" d="m226.98,218.72c2.33-.68,4.64-1.47,6.86-2.42.81-.35,1.57-.8,2.36-1.17.65-.31,1.28-.63,1.9-.97.61-.31,1.27-.7,1.73-1.01.23-.14.5-.31.67-.59.09-.14.1-.33-.01-.44-.1-.11-.25-.18-.38-.26l-.28-.12-.25-.09c-.05-.02-.29-.08-.43-.12-.32-.09-.65-.15-.98-.22-.67-.11-1.34-.21-2.01-.27-.86-.07-1.73-.06-2.6-.04-.87.03-1.73.08-2.63.04-.56-.02-.58-.29-.2-.8.19-.26.48-.58.87-.91.39-.31.89-.53,1.44-.64,1.42-.27,2.86-.39,4.31-.33.73,0,1.45.15,2.17.3.5.1,2.02.51,3.06,1.04.81.47,1.24,1.02,1.44,1.83.16.83-.13,1.61-.63,2.3-.24.38-.61.7-.92,1.05-.34.3-.8.68-.99.83-.5.38-1,.73-1.51,1.07-1.02.67-2.06,1.26-3.12,1.78-2.34,1.13-4.74,2.04-7.17,2.86-1.49.5-3,.94-4.52,1.37-2.29.64-4.64,1.12-6.96,1.61-1.8.37-3.57.87-5.41,1.15-.41.06-.8.14-1.22.16-1.54.08-2.05-.2-2.33-1.11-.06-.21-.15-.42-.18-.62-.1-.7.51-1.24,1.52-1.46,3-.7,6.14-1.2,9.32-1.94,2.35-.54,4.73-1.14,7.05-1.9l.03.08Z"/><path class="cls-3" d="m130.77,186.61c.35,1.09.76,2.23.91,3.65.09.69.07,1.5-.13,2.34-.2.86-.74,1.73-1.41,2.34-.35.28-.68.55-1.13.77-.44.2-.89.33-1.33.4-.87.11-1.63,0-2.28-.14-.66-.15-1.22-.34-1.75-.51-.51-.17-.94-.29-1.42-.4-1.39-.31-2.81-.28-4.09-.05-1.13.21-2.13.69-2.88,1.44-.74.75-1.21,1.76-1.32,2.93-.23,2.32.79,4.96,2.62,6.67,1.62,1.59,3.88,2.53,6.15,2.88,1.47.2,2.98.11,4.44-.19.73-.15,1.45-.34,2.15-.6.34-.14.71-.25,1.04-.43.34-.16.74-.23,1.09-.41.92-.36.9-.25.45.59-.22.42-.54,1.09-1.15,1.64-.6.55-1.41,1.12-2.38,1.46-3.47,1.2-7.42.99-10.85-.64-1.69-.88-3.2-2.1-4.35-3.71-1.13-1.58-1.84-3.41-2.06-5.35-.12-1.16-.09-2.36.22-3.56.3-1.19.9-2.36,1.75-3.3.84-.94,1.92-1.65,3.05-2.09,1.13-.44,2.31-.63,3.45-.66,1.26-.04,2.48.11,3.67.39,1.23.29,2.25.72,3.11.86.91.14,1.32.02,1.77-.47.38-.38.48-1.17.31-2.12-.18-1.16-.67-2.4-1.13-3.72-.11-.34-.23-.69-.33-1.07l-.23-1.05c-.17-.7-.27-1.4-.36-2.1-.58-4.26-.22-8.62,1.03-12.73.94-3.17,2.54-6.28,5.2-8.61.27-.28.58-.5.9-.72.32-.22.64-.44.97-.65,2.6-1.35,3.67-1.12,4.38-.43.17.17.37.33.47.51.17.31.03.67-.34,1.02-.19.18-.43.35-.72.51-.15.08-.31.16-.48.24-.16.1-.33.2-.51.31-2.2,1.16-3.93,2.94-5.18,5.15-1.27,2.2-1.99,4.84-2.35,7.54-.27,2.01-.34,4.07-.16,6.11.02.51.1,1.02.17,1.52.06.51.14,1.01.26,1.5.11.5.2,1.01.33,1.4.14.45.34.98.52,1.51l-.08.03Z"/><path class="cls-3" d="m220.04,348.64c5.51-1.95,10.92-4.1,16.12-6.63.94-.47,1.89-.94,2.81-1.45.9-.54,1.8-1.07,2.71-1.58,1.65-.85,3.13-1.93,4.68-2.92.79-.48,1.49-1.06,2.2-1.63l2.14-1.7c2.76-2.43,5.3-5.22,8.02-7.91.86-.85,1.73-1.69,2.61-2.52.85-.78,2.04-1.8,2.25-1.97.17-.15.38-.27.51-.44-.12-.2-.34-.32-.52-.46l-.61-.41-1.28-.97c-.86-.65-1.71-1.33-2.54-2.05-.83-.72-1.63-1.46-2.39-2.26-.38-.4-.75-.81-1.1-1.24-.35-.43-.63-.93-.92-1.4-.64-1.25-.44-1.11.56-.49,1.07.57,2.94,1.47,4.95,2.77,1.38.9,2.8,1.75,4.23,2.63l.27.17c.09.06.15.09.36.23l1.09.7c.76.46,1.46,1.02,1.79,1.6.17.28.28.56.32.83.03.14.03.26.04.41,0,.15.01.33-.08.45l-.41.79-.2.4c-.04.07-.06.13-.11.2l-.25.2-1.57,1.23-.89.73c-.48.41-.97.82-1.44,1.26-.96.86-1.9,1.76-2.84,2.69-1.89,1.85-3.78,3.79-5.83,5.65-4.07,3.59-8.56,7.16-13.42,9.71-5.31,2.88-10.83,5.22-16.38,7.38l-5.15,1.92-5.17,1.84c-5.22,1.84-10.48,3.58-15.59,5.54-1.96.8-3.92,1.58-5.8,2.49l-2.82,1.34-2.74,1.45c-.82.4-1.56.89-2.35,1.33-1.48.8-2.47,1.27-3.2,1.54-.75.26-1.29.28-1.84.15-.25-.06-.55-.08-.74-.16-.64-.26.17-1.56,2.19-3.39,1.59-1.11,3.24-2.3,5.01-3.16,1.74-.97,3.54-1.79,5.37-2.61,3.65-1.61,7.4-3.01,11.17-4.38,5.59-2.01,11.21-3.9,16.73-5.96l.04.08Z"/><path class="cls-3" d="m268.37,362.8c-2.31-4.6-4.56-9.24-6.78-13.88-.81-1.69-1.72-3.34-2.49-5.05-2.72-6.03-5.34-12.11-7.98-18.16-1.2-2.68-2.4-5.37-3.59-8.02-1.6-3.38-2.96-6.88-4.2-10.42-.38-1.11-.06-1.08.69-.33.73.75,1.99,2.17,3.08,4.03l1.43,2.49c.47.83.88,1.69,1.31,2.54l2.55,5.11c1.64,3.44,3.14,6.96,4.64,10.49,1.77,4.24,4.05,8.45,6.09,12.68,2.22,4.66,4.45,9.32,6.76,13.94,1.42,2.84,2.84,5.69,4.33,8.49,2.23,4.26,4.51,8.53,6.93,12.64,1.89,3.19,3.94,6.2,5.99,9.24.45.67.9,1.32,1.36,1.99,1.69,2.49,1.92,3.48,1.64,4.45-.07.22-.11.48-.21.65-.33.57-1.44-.17-2.9-1.89-4.11-5.22-7.9-11.1-11.35-17.18-2.56-4.52-5-9.13-7.39-13.75l.07-.05Z"/><g class="cls-4"><path class="cls-3" d="m223.97,241.93c.14-.13.3-.24.48-.31.11-.05.22-.11.34-.17.09-.05.17-.1.26-.13.26-.1.51-.23.75-.39.22-.14.94-.48,1.63-.79.7-.21,1.4-.42,1.52-.45.38-.11,1.53-.45,1.7-.6.18-.15,1.12-.41,1.36-.57.09-.06.2-.09.31-.11.46-.08.8-.54,1.25-.64.28-.06.54-.17.81-.25.06-.02.12-.06.19-.07.73-.12,1.36-.51,2.05-.72.14-.04.29-.08.43-.12.09-.03.19-.03.27-.09.43-.3.94-.38,1.44-.5.07-.02.14,0,.19-.06.28-.31.68-.29,1.01-.48.1-.06.22-.09.33-.13.09-.03.19-.04.26-.1.34-.25.74-.37,1.08-.58.02-.01.05-.02.07-.04.32-.35.77-.39,1.21-.47.27-.05.54-.11.68-.39.03-.05.06-.1.12-.11.28-.02.5-.17.74-.28.01,0,.03,0,.05,0,.05,0,.43.53.5.65.08.12.79,1.64.77,1.7-.01.06-.02.12-.04.16-.09.1-.14.24-.08.53.03.15-.02.22-.1.24-.59.13-1.04.51-1.59.71-.23.08-.43.22-.65.33-1.1.53-2.23.98-3.35,1.42-.2.08-.41.12-.63.14-.21,0-.4.06-.59.13-.31.12-.63.25-.94.37-.45.16-.91.3-1.36.44-.76.24-1.53.44-2.3.66-.03,0-.06,0-.08.02-.2.18-.66.34-1.08.46-.42.12-.82.15-.87.17-.42.1-.84.2-1.27.27-.43.07-.84.19-1.27.23-.38.03-.74.13-1.11.2-.05.01-.11.03-.16.03-.62.03-3.15.13-3.45.17-.07,0-.14,0-.2-.03-.06-.02-.13-.03-.19-.05-.06-.02-.1-.06-.16-.07-.06-.01-.13,0-.2,0-.07,0-.11-.03-.1-.07,0-.05,0-.19,0-.23Z"/></g><path class="cls-3" d="m229.65,255.05c.08-.2.2-.36.35-.47.09-.07.18-.17.26-.26.07-.07.13-.15.21-.17.24-.09.45-.23.65-.4.19-.16.83-.47,1.46-.74.63-.26,1.27-.42,1.38-.46.34-.11,1.39-.42,1.54-.57.16-.16,1.03-.37,1.24-.53.08-.06.18-.09.28-.11.42-.08.71-.57,1.12-.67.25-.06.49-.17.74-.25.06-.02.11-.06.17-.07.68-.07,1.26-.44,1.91-.59.13-.03.27-.06.4-.08.08-.02.17-.02.25-.07.4-.27.88-.29,1.35-.36.06,0,.13.01.18-.04.27-.28.65-.21.96-.37.1-.05.21-.06.32-.09.08-.02.18-.01.25-.06.33-.21.71-.27,1.05-.43.02-.01.05-.01.07-.03.32-.31.75-.26,1.18-.26.26,0,.51-.02.67-.28.03-.05.07-.09.12-.09.27.04.49-.07.73-.13.01,0,.03.02.04.02.05.01.33.64.39.78.05.14.54,1.87.52,1.93-.02.05-.03.12-.06.15-.09.08-.15.21-.13.52.01.16-.04.22-.11.22-.55-.02-.98.27-1.48.36-.21.04-.4.15-.6.22-1.02.34-2.04.65-3.06.96-.18.05-.37.09-.57.07-.19-.01-.36.02-.53.06-.29.08-.56.2-.85.29l-1.22.34c-.68.19-1.37.35-2.06.51-.02,0-.05,0-.07.02-.34.34-1.64.54-1.73.57-.37.11-.73.22-1.1.31-.37.08-.72.23-1.1.28-.33.05-.64.17-.96.26-.05.01-.09.04-.14.05-.27.03-.97.12-1.61.24-.65.12-1.25.26-1.41.23-.07,0-.13-.02-.21-.07-.07-.04-.14-.06-.21-.1-.06-.04-.12-.1-.18-.12-.06-.02-.13-.01-.19-.02-.06,0-.12-.06-.13-.13-.02-.08-.08-.31-.09-.38Z"/><g class="cls-4"><path class="cls-3" d="m225.14,286.63c.08-.19.2-.34.37-.44.1-.06.19-.15.28-.23.07-.06.14-.13.22-.18.23-.12.44-.29.64-.49.32-.51,2.69-1.2,2.91-1.31.35-.12,1.43-.48,1.58-.62.16-.15,1.06-.4,1.28-.56.09-.06.19-.09.29-.12.43-.1.74-.57,1.16-.68.26-.07.51-.18.76-.27.06-.02.11-.06.18-.08.69-.11,1.31-.47,1.98-.63.13-.03.28-.06.41-.09.09-.02.18-.02.26-.07.43-.27.92-.3,1.41-.36.06,0,.14.01.19-.04.29-.28.68-.21,1-.36.1-.05.22-.06.33-.08.09-.02.18-.01.26-.06.35-.21.75-.26,1.11-.41.02,0,.05-.01.07-.03.35-.3.8-.25,1.23-.24.27,0,.53,0,.71-.26.04-.05.08-.09.13-.08.27.04.51-.06.76-.1.01,0,.03.02.04.02.05.01.3.65.34.8.05.14.43,1.89.41,1.95-.02.05-.03.12-.07.14-.1.07-.17.2-.16.51,0,.16-.05.22-.12.21-.56-.05-1.01.22-1.53.28-.22.03-.42.13-.63.19l-3.15.85c-.19.05-.37.08-.58.06-.19-.02-.37.01-.54.06-.3.08-.58.19-.87.28l-1.25.33c-.7.19-1.41.33-2.11.51-.02,0-.05,0-.07.02-.36.33-1.68.56-1.76.6-.37.11-.74.24-1.12.33-.38.09-.74.25-1.12.32-.34.06-.65.2-.97.3-.05.02-.09.04-.14.05-.29.02-.94.27-1.62.37-.68.1-1.31.22-1.45.26-.06.01-.13,0-.2-.03-.07-.03-.14-.03-.2-.06-.06-.02-.12-.08-.18-.09-.06-.01-.13,0-.19,0-.07,0-.12-.05-.13-.12-.02-.07-.09-.3-.11-.37Z"/></g><g class="cls-4"><path class="cls-3" d="m168.83,275.46c.15-.2.32-.32.53-.39.13-.04.25-.12.38-.18.1-.05.19-.11.29-.13.29-.08.56-.24.83-.4.51-.22,3.27-.99,3.54-1.07.42-.13,1.69-.53,1.88-.68.2-.16,1.25-.47,1.5-.65.1-.07.22-.11.33-.14.5-.14.87-.61,1.36-.78.31-.09.6-.22.9-.33.07-.03.14-.07.21-.09.81-.2,1.52-.64,2.31-.9.16-.05.32-.1.48-.16.1-.03.21-.05.3-.11.5-.32,1.08-.44,1.65-.59.08-.02.16-.02.22-.07.35-.3.8-.32,1.19-.51.12-.06.26-.09.4-.13.1-.03.22-.04.31-.1.42-.25.89-.36,1.33-.55.03-.01.06-.02.09-.04.43-.33.96-.35,1.48-.41.32-.04.62-.09.87-.33.05-.05.1-.09.17-.09.33,0,.62-.12.92-.19.01,0,.03.01.05.01.05,0,.28.53.32.64.04.12.29,1.58.26,1.64-.03.05-.05.11-.09.13-.12.08-.21.2-.23.45,0,.14-.08.19-.16.19-.62.02-1.16.33-1.75.46-.25.05-.48.18-.72.27-1.22.43-2.43.88-3.65,1.34-.21.08-.44.14-.67.17-.22.02-.43.08-.63.16-.34.14-.68.28-1.02.42l-1.47.55c-.83.3-1.65.6-2.49.88-.03,0-.06.01-.09.03-.44.36-2.03.79-2.13.82-.46.15-.91.33-1.37.45-.47.12-.91.31-1.39.4-.41.08-.81.22-1.22.34-.06.02-.12.05-.18.05-.35.04-1.2.24-2.02.39-.82.15-1.63.15-1.8.18-.08,0-.16-.02-.23-.07-.07-.05-.16-.06-.23-.1-.07-.04-.12-.11-.19-.14-.07-.03-.15-.02-.23-.03-.08-.01-.13-.08-.12-.17,0-.09-.02-.38-.03-.46Z"/></g><path class="cls-3" d="m167.06,239.84c.04-.18.11-.26.2-.29.06-.02.11-.07.16-.11.04-.03.08-.07.12-.08.13-.03.25-.11.36-.21.2-.19,1.4-.6,1.52-.64.18-.07.74-.26.8-.38.07-.11.55-.2.65-.32.04-.05.09-.06.14-.07.23-.04.34-.39.56-.44.14-.03.26-.1.39-.15.03-.01.05-.04.09-.05.37-.04.64-.32.98-.43.07-.02.14-.04.21-.06.04-.01.1-.01.13-.05.18-.21.45-.22.71-.27.03,0,.08.01.1-.03.1-.22.33-.16.48-.28.05-.04.11-.05.17-.06.04-.02.1,0,.13-.04.15-.16.36-.21.53-.33.01,0,.03,0,.03-.02.12-.24.38-.2.64-.18.15.01.3,0,.35-.19,0-.04.02-.07.06-.06.17.04.28-.04.41-.07,0,0,.02.01.03.02.03,0,.31.49.37.6.06.1.66,1.42.66,1.47,0,.04,0,.09,0,.11-.04.06-.05.16.02.4.04.12.02.17-.02.17-.32,0-.52.23-.8.3-.12.02-.21.11-.32.16-.55.24-1.1.47-1.66.69-.1.04-.2.06-.33.04-.11-.01-.21,0-.3.04-.16.06-.3.15-.46.21-.22.09-.45.17-.68.24l-1.15.36s-.03,0-.04.01c-.16.26-.9.4-.95.42-.2.08-.4.16-.63.18-.22.03-.42.11-.65.12-.2,0-.37.07-.56.1-.03,0-.05.02-.08.02-.33-.01-1.58.14-1.73.16-.04,0-.07-.02-.12-.07-.04-.04-.08-.06-.12-.1-.04-.04-.08-.12-.11-.15-.04-.03-.08-.03-.11-.05s-.07-.1-.09-.18c-.02-.09-.08-.38-.1-.47Z"/><g class="cls-4"><path class="cls-3" d="m181.76,326.02c.26-.15.44-.25.57-.31.1-.05.19-.11.3-.16.1-.02.21-.04.31-.05.26-.02.53-.13.79-.21.21-.06.41-.14.62-.18.6-.11,1.18-.32,1.75-.58.52-.24,2.2-.71,3.82-1.19,1.61-.52,3.17-.99,3.44-1.1.86-.29,3.45-1.17,3.85-1.43.43-.26,2.56-.98,3.11-1.3.22-.12.45-.21.69-.29,1.01-.34,1.87-1.05,2.86-1.44.62-.25,1.22-.5,1.82-.74.14-.06.28-.14.43-.19,1.6-.55,3.1-1.35,4.66-1.99l.96-.38c.2-.08.42-.15.6-.26,1.04-.59,2.16-.99,3.27-1.4.15-.05.31-.09.43-.18.73-.51,1.59-.74,2.36-1.15.25-.13.51-.23.77-.34.2-.09.42-.15.6-.26.84-.5,1.74-.86,2.6-1.31.06-.03.12-.05.17-.09.86-.6,1.85-.91,2.83-1.23.59-.21,1.19-.41,1.67-.83.09-.08.2-.16.32-.19.61-.16,1.17-.44,1.75-.68.03-.01.06,0,.09-.01.1-.02.48.47.54.59.06.11.41,1.71.34,1.8-.06.08-.11.17-.18.22-.24.17-.42.38-.48.71-.03.18-.17.29-.32.35-1.18.46-2.27,1.12-3.45,1.59-.5.2-.96.48-1.45.71-2.44,1.14-4.89,2.25-7.35,3.33-.44.19-.88.36-1.34.49-.43.12-.84.28-1.25.45-.69.31-1.39.61-2.08.92-.99.43-1.98.83-2.98,1.23-1.67.67-3.34,1.34-5.04,1.96-.06.02-.12.03-.18.07-.94.59-4.12,1.65-4.34,1.71-.92.33-1.84.68-2.78.98-.94.29-1.85.64-2.8.91-.82.23-1.64.5-2.46.75-.12.04-.24.09-.36.12-.35.09-.95.23-1.67.41-.73.16-1.56.42-2.41.54-1.68.29-3.33.4-3.68.44-.16.02-.32-.02-.46-.06-.13-.05-.3-.05-.43-.13-.13-.07-.21-.14-.34-.18-.13-.04-.31-.06-.45-.08-.15-.02-.22-.06-.18-.1.04-.04.08-.19.12-.24Z"/></g><path class="cls-3" d="m202.84,336.93c.19-.22.41-.39.68-.52.16-.08.32-.19.47-.29.12-.08.24-.17.37-.22.37-.16.71-.42,1.06-.63.65-.39,4.16-1.91,4.51-2.07.55-.21,2.19-.87,2.43-1.07.25-.22,1.62-.73,1.95-.98.13-.1.28-.16.43-.22.65-.24,1.12-.86,1.76-1.12.4-.16.77-.36,1.16-.54.09-.04.17-.11.27-.14,1.05-.36,1.96-1,2.97-1.43.21-.08.42-.17.62-.26.13-.06.27-.09.39-.18.64-.47,1.39-.69,2.13-.94.1-.03.21-.04.29-.11.44-.42,1.03-.5,1.53-.79.16-.09.34-.15.51-.21.13-.05.28-.08.4-.16.54-.36,1.16-.54,1.73-.83.04-.02.08-.03.11-.05.54-.46,1.25-.53,1.94-.64.42-.07.82-.16,1.13-.5.06-.07.13-.13.21-.13.43-.02.81-.2,1.2-.32.02,0,.05.01.07.01.07,0,.41.66.46.81.06.15.5,2.03.47,2.11-.03.07-.06.15-.11.18-.16.11-.27.27-.27.62,0,.18-.09.26-.19.27-.83.08-1.51.54-2.29.76-.33.09-.62.28-.94.42l-4.75,2.02c-.28.12-.57.21-.88.27-.29.05-.56.14-.82.25-.45.19-.88.42-1.33.62l-1.91.82-3.23,1.34s-.08.02-.11.05c-.55.5-2.6,1.24-2.74,1.29-.59.25-1.16.52-1.76.74-.6.22-1.16.51-1.78.69-.55.13-1.06.34-1.59.51-.08.03-.15.06-.23.08-.45.09-1.57.4-2.63.67-1.05.33-2.12.39-2.34.45-.11.02-.2,0-.31-.03-.09-.03-.2-.03-.3-.05-.09-.02-.16-.08-.25-.09-.09-.01-.2.01-.3.02-.1,0-.16-.04-.16-.11,0-.07-.04-.3-.04-.38Z"/><path class="cls-3" d="m173.44,292.2c.22-.23.47-.47.76-.71.18-.14.36-.31.53-.47.14-.13.28-.25.43-.35.44-.27.9-.51,1.33-.81.4-.27,1.72-.91,3.01-1.46,1.31-.5,2.57-.92,2.81-.99.7-.25,2.83-.92,3.17-1.1.36-.21,2.12-.7,2.58-.92.18-.09.38-.15.57-.2.83-.22,1.56-.77,2.39-1.01.51-.14,1.01-.33,1.51-.5.12-.04.23-.1.36-.13,1.33-.32,2.56-.92,3.85-1.33.26-.08.53-.17.79-.25.17-.06.34-.09.49-.17.85-.45,1.78-.65,2.68-.93.12-.04.25-.05.35-.12.58-.41,1.3-.5,1.91-.82.2-.1.41-.17.62-.25.16-.06.34-.1.48-.19.67-.37,1.38-.66,2.04-1.02.04-.02.09-.04.13-.07.66-.5,1.42-.73,2.18-1.01.46-.17.94-.33,1.23-.76.06-.08.13-.16.22-.19.46-.16.85-.45,1.27-.69.02-.01.05,0,.08-.01.08-.02.54.47.62.59.09.12.81,1.71.76,1.8-.03.07-.06.16-.12.21-.18.17-.31.37-.3.7,0,.17-.1.29-.23.34-1,.44-1.88,1-2.85,1.45-.42.21-.8.4-1.2.6-1.01.48-2.02.94-3.05,1.33-1.02.43-2.05.8-3.09,1.17-.36.13-.73.25-1.12.31-.36.05-.71.15-1.05.26-.58.2-1.17.39-1.74.59l-2.5.74-4.19,1.15s-.1.02-.15.04c-.79.43-3.39,1.06-3.56,1.11-.75.22-1.49.46-2.25.66-.76.2-1.48.47-2.23.66-.66.16-1.29.4-1.93.62-.09.03-.19.07-.28.1-.26.08-.74.2-1.3.36-.56.18-1.21.38-1.84.58-.62.22-1.22.46-1.7.65-.52.11-.87.26-1,.3-.12.04-.23.06-.35.07-.11,0-.23.05-.34.06-.1.02-.18,0-.28.04-.1.03-.23.09-.34.13-.11.04-.18.05-.17.01.01-.04,0-.14,0-.19Z"/><path class="cls-3" d="m217.06,74.48c-.6.24-1.23.41-1.85.45-.31.04-.61.02-.92.02-.32-.02-.64-.06-.95-.13-1.23-.28-2.34-.93-3.16-1.88-.3-.35-.56-.73-.77-1.15-.21-.4-.36-.95-.38-1.41-.05-.84.12-1.61.42-2.32.31-.7.74-1.37,1.4-1.89.64-.52,1.64-.82,2.51-.57.42.12.8.31,1.1.55.32.2.63.55.83.88.74,1.2.67,2.86-.42,3.88-.34.31-.87.57-1.44.49-.57-.07-.98-.44-1.22-.84-.52-.89-.16-1.85.3-2.41.32-.36.35-.22.31.17-.01.2-.01.48.06.75.07.27.23.53.38.62.13.12.33.13.36.11,0,0,.02-.03,0,0v.02s0-.07,0-.07c0-.01.01-.03.04-.07.16-.17.29-.56.23-.93-.03-.38-.2-.74-.46-.93-.39-.3-.6-.35-.91-.3-.39.08-.9.62-1.11,1.26-.25.64-.25,1.36-.08,1.85.24.64.77,1.22,1.45,1.58.69.36,1.45.46,2.25.34.96-.15,1.85-.65,2.36-1.46.8-1.2.69-2.96-.19-4.29-.67-1.04-1.75-1.73-2.85-2.09l-.72-.2c-.88-.28-1.14-.43-1.35-1.12-.05-.16-.12-.31-.15-.46-.13-.49.38-.99,1.42-1.02,3.09-.05,6.08,2.48,6.84,5.83.28,1.27.21,2.71-.4,3.97-.59,1.26-1.67,2.26-2.89,2.8l-.03-.05Z"/><path class="cls-3" d="m294.93,123.54c-.9-.47-1.68-1.13-2.29-1.94-.6-.81-1.05-1.83-1.06-2.94-.02-.8.15-1.64.57-2.29.7-1.18,1.82-1.94,3.07-2.29.63-.16,1.35-.21,2.06.05.72.23,1.32.9,1.51,1.58.07.29.15.59.14.87.02.26.03.6-.06.91-.18.61-.57,1.11-1.08,1.44-.33.2-.72.34-1.14.34-.41,0-.84-.15-1.13-.39-.3-.25-.55-.55-.64-.92-.09-.36-.07-.75.09-1.07.23-.38.22-.26.27.06.04.16.14.36.34.51.09.08.22.13.32.18.09.06.18.11.26.15.32.17.49.05.69-.12.21-.18.28-.51.28-.68-.01-.06-.01-.39-.06-.49-.01-.08-.03-.15-.06-.19-.01-.06-.05-.09-.07-.13-.07-.14-.29-.24-.7-.26-1.01-.09-2.19.94-2.49,1.91-.44,1.06.18,2.47,1.31,3.35.69.53,1.53.92,2.36.95,1.24.07,2.56-.75,3.07-1.96.4-.93.24-2-.15-2.89-.09-.2-.2-.38-.31-.56-.43-.65-.37-1.01-.18-1.47.05-.11.08-.23.14-.32.16-.3.72-.28,1.42.28.85.93,1.42,2.23,1.44,3.66.02,1.43-.62,2.95-1.72,3.95-.81.76-1.88,1.27-3.01,1.4-1.18.13-2.26-.17-3.18-.62l.02-.05Z"/><path class="cls-3" d="m314.43,231.68c.91-.38,1.93-.65,3.07-.49,1.15.16,2.21.9,2.77,1.84.42.68.67,1.43.69,2.18.04,1.31-.45,2.62-1.44,3.53-.25.23-.53.41-.83.57-.33.16-.67.24-1.01.28-.68.06-1.34-.08-1.92-.39-.51-.28-.98-.73-1.22-1.32-.25-.59-.21-1.29.05-1.84.3-.71,1.17-1.34,2.11-1.08.84.25,1.33,1.12,1.07,1.89-.24.45-.28.23-.4-.07-.08-.15-.24-.29-.44-.36-.21-.06-.42-.05-.52-.05-.11.02-.06.08-.1.13-.03.06-.04.15-.07.24-.04.08-.07.2-.07.28,0,.07.03.14.07.23.15.36,1.1.69,1.65.4.42-.18.79-.61.95-1.14.16-.53.18-1.12.05-1.65-.14-.58-.45-1.06-.93-1.35-.44-.29-1.06-.33-1.71-.18-.4.1-.8.25-1.19.47l-.59.34-.52.4c-.49.44-.9.93-1.1,1.5-.19.57-.16,1.19.08,1.75.36.9,1.22,1.55,2.1,2.04.2.1.39.21.6.3.75.38.93.63.87,1.29-.01.15-.01.3-.04.44-.09.47-.61.69-1.39.52-1.11-.33-2.22-.95-3.16-1.93-.92-.96-1.63-2.5-1.45-4.15.14-1.22.79-2.28,1.53-3.01.36-.4.77-.66,1.17-.97.42-.24.8-.49,1.26-.71l.03.05Z"/><path class="cls-3" d="m116.6,388.94c.39-.36.66-.82.73-1.42.11-.6.02-1.27-.23-1.88-.19-.44-.5-.78-.8-1-.27-.2-.57-.28-.93-.23-.37.05-.77.25-1.05.54-.3.29-.54.67-.68,1.08-.14.41-.15.87-.02,1.16.12.25.29.35.66.28.17-.05.35-.09.53-.2.18-.11.38-.19.45-.29.12-.14.2-.29.19-.4-.01-.07-.04-.18-.06-.22,0,0,0,0,0,0,0,0,0-.02.02-.03h0s.01-.03,0,.02c0,.01,0,0,0,0-.07-.02-.32.1-.48.28-.17.17-.34.37-.42.61-.08.28-.16.33-.33-.03-.11-.34-.27-1.23.72-1.87.11-.07.28-.11.45-.14.2-.01.4,0,.6.11.39.19.58.53.67.75.1.2.18.56.14.87-.04.3-.14.58-.3.8-.16.22-.35.4-.57.54l-.5.28c-.35.17-.74.32-1.25.34-.24.02-.55-.04-.81-.14-.28-.13-.53-.3-.7-.53-.35-.44-.47-.93-.49-1.35-.03-.85.23-1.59.65-2.22.51-.76,1.28-1.35,2.21-1.64.48-.13,1.02-.15,1.53,0,.5.15.93.43,1.27.76.73.74,1.14,1.65,1.32,2.6.19.95.08,1.99-.41,2.9-.59,1.13-1.72,1.82-2.82,2.11-.85.23-1.73.22-2.57.07-.82-.15-1.69-.47-2.37-1.1-1.06-.97-1.5-2.4-1.47-3.73,0-.3.01-.59.07-.89.24-1.1.6-1.37,1.13-1.33.12.01.25.01.36.05.38.13.45.59.37,1.17-.13.88-.06,1.81.22,2.51.29.71.73,1.11,1.49,1.33,1.2.37,2.64.18,3.42-.55l.03.03Z"/><path class="cls-3" d="m399.6,422.3c-.03-.82.18-1.53.48-2.15.31-.65.74-1.2,1.25-1.65.37-.33.77-.66,1.26-.86.85-.35,1.89-.4,2.78,0,.85.4,1.61,1.21,1.61,2.32-.02.5-.21.92-.48,1.27-.28.34-.67.63-1.18.71-.31.06-.67,0-.98-.2-.3-.19-.48-.47-.58-.74-.1-.28-.12-.57-.06-.87.07-.29.26-.58.5-.74.37-.16.35.14.4.45.02.34.42.49.54.53.03.01.05.02.07.01.03-.02,0,0-.03.03-.02.02-.05.05-.07.07-.04.04-.06.09-.06.09h0s0,0,0,0l.04-.19h0s0,0,0,0h0s0,.02,0,0c.02-.01-.06-.21-.08-.24l.04-.06.03-.06h.06s.03,0,.03,0h0s0,0,0,0h0s.1-.01-.1.01h0s0,0,0,0c0-.02.01-.04.01-.06.01-.09-.06-.27-.21-.44-.17-.2-.47-.29-.78-.26-.31.02-.63.17-.93.35-.68.42-1.24,1.15-1.4,1.99-.1.5-.04.95.23,1.34.4.59,1.25,1.04,2.07,1.02.67,0,1.3-.32,1.93-.64.14-.06.27-.15.42-.21.55-.22.8-.15,1.15.35.08.11.17.22.23.34.22.4.13.85-.26,1.17-.29.24-.61.46-.96.66-.36.17-.76.32-1.19.42-.43.1-.9.16-1.38.15-.51,0-1.02-.1-1.5-.27-.72-.24-1.4-.66-1.97-1.27-.56-.61-.96-1.5-1-2.34h.05Z"/><path class="cls-3" d="m58.95,119.9c1.31.68,2.89.79,3.74.04.35-.28.58-.75.73-1.16.28-.75.23-1.66-.34-2.34-.27-.34-.71-.62-1.11-.78-.39-.14-.91-.14-1.35,0-.4.13-.68.38-.8.66-.05.15-.09.32-.06.51.01.18.06.3.18.44.29.37.85.47,1.15.28.32-.18.43-.99,0-1.34-.28-.16-.32-.26.13-.26.22.02.55.18.79.54.23.35.43.9.16,1.54-.25.59-.89.99-1.49,1.03-.61.04-1.18-.13-1.65-.47-.24-.17-.46-.38-.63-.65-.17-.25-.31-.62-.35-.87-.13-.53-.1-1.22.2-1.8.65-1.16,1.73-1.57,2.69-1.71.49-.06,1-.05,1.52.09.52.15.89.34,1.31.6.95.62,1.73,1.6,2.07,2.74.16.57.23,1.17.17,1.75-.07.58-.24,1.15-.49,1.66-.56,1.08-1.59,2.07-2.8,2.43-1.2.37-2.41.28-3.48-.02-1.32-.39-2.52-1.07-3.48-2.09-.37-.37-.68-.83-.93-1.33-.22-.47-.38-.95-.51-1.44-.24-.99-.26-2.05-.04-3.06.31-1.58,1.24-3.03,2.48-4.02.27-.24.55-.42.84-.61,1.14-.62,1.6-.53,2.05.03.1.13.22.25.29.39.26.48-.05,1.02-.65,1.45-1.83,1.29-2.82,2.82-2.56,4.61.04.33.13.66.24,1,.07.15.14.35.21.48.07.11.11.23.22.35.35.48.93.96,1.59,1.26l-.03.06Z"/><g class="cls-2"><path class="cls-3" d="m259.48,170.6c1.86,0,3.44-1.58,3.44-3.44s-1.57-3.44-3.44-3.44-3.44,1.58-3.44,3.44,1.57,3.44,3.44,3.44h0Z"/></g><path class="cls-3" d="m285.06,88.24c1.77,0,1.77-2.75,0-2.75s-1.77,2.75,0,2.75h0Z"/><path class="cls-3" d="m271.55,77.57c2.41,0,2.42-3.75,0-3.75s-2.42,3.75,0,3.75h0Z"/><path class="cls-3" d="m99.12,93.14c2.73,0,2.74-4.25,0-4.25s-2.74,4.25,0,4.25h0Z"/><g class="cls-2"><path class="cls-3" d="m92.76,105.7v-.38c0-.19-.03-.37-.12-.53-.06-.17-.15-.32-.28-.44-.12-.13-.27-.23-.44-.28-.16-.09-.34-.13-.53-.12l-.37.05c-.23.07-.44.18-.61.35l-.22.28c-.12.21-.19.45-.19.69v.38c0,.19.03.37.12.53.06.17.15.32.28.44.12.13.27.23.44.28.16.09.34.13.53.12l.37-.05c.23-.07.44-.18.61-.35l.22-.28c.12-.21.19-.45.19-.69h0Z"/></g><g class="cls-2"><path class="cls-3" d="m133.81,372.12c2.73,0,2.74-4.25,0-4.25s-2.74,4.25,0,4.25h0Z"/></g><path class="cls-3" d="m382.16,419.68c1.77,0,1.77-2.75,0-2.75s-1.77,2.75,0,2.75h0Z"/><path class="cls-3" d="m409.88,440c2.41,0,2.42-3.75,0-3.75s-2.42,3.75,0,3.75h0Z"/><g class="cls-2"><path class="cls-3" d="m348.89,460.66c2.01,0,3.72-1.71,3.72-3.72s-1.7-3.72-3.72-3.72-3.72,1.71-3.72,3.72,1.7,3.72,3.72,3.72h0Z"/></g><path class="cls-3" d="m459.09,250.71c.2.16.11.44-.16.77-.09.11-.43.28-.51.24-.16-.07-.31-.15-.44-.24-.08-.05-.86-1.16-1.14-1.53-.27-.36-.48-.75-.67-1.15-.44-.78-.91-1.56-1.33-2.36-.1-.18-.17-.36-.22-.56-.17-.67-.46-1.29-.8-1.89-.06-.1-.09-.21-.22-.28-.23-.1-1.03-1.8-1.02-2.06-.05-.62-.15-1.22-.22-1.83,0-.09-.08-.16.01-.27.2-.26.1-.42.06-.6-.06-.25-.1-.51-.06-.79.01-.14.13-.31.22-.46.08-.14.48-.2.53-.18.16.07.31-.08.47-.14.05-.02.12-.05.17-.06.05,0,.38.27.71.56.3.3.58.62.6.7,0,.02.21.5.43,1.02.23.51.46,1.04.52,1.14.06.11.04.25.05.38,0,.06.68,1.59.69,1.65.07.34.26.64.17,1.04-.02.08.02.14.04.21.22.55.33,1.15.49,1.73.08.3.21.57.31.86.02.05.01.11.02.17.01.07.01.15.04.21.26.68.47,1.37.85,2,.08.14.26.94.36,1.11.06.09-.03.53.06.59Z"/><path class="cls-3" d="m467.04,253.74c-.09.24-.39.24-.78.14-.13-.03-.38-.27-.38-.36,0-.17.02-.34.04-.5.02-.09.64-1.31.81-1.75.17-.42.4-.81.64-1.18l1.53-2.19c.11-.16.25-.3.41-.42.55-.41.97-.94,1.33-1.52.06-.1.14-.18.13-.34-.01-.13.25-.57.54-.99.3-.41.65-.79.76-.85.55-.3,1.01-.68,1.56-.98.08-.04.11-.14.27-.1.37.09.45-.08.6-.2.21-.15.43-.29.69-.4.13-.05.34-.03.52-.03.17,0,.44.32.45.38.03.17.24.24.38.34.05.04.11.08.14.12.05.06-.17,1.79-.28,1.91.02.07-1.21,1.8-1.33,2.02-.06.11-.2.16-.32.22-.03.05-1.06,1.39-1.12,1.44-.28.22-.45.54-.89.62-.09.02-.13.07-.17.13-.4.45-.9.81-1.37,1.2-.24.2-.44.44-.66.65-.04.04-.1.06-.16.09-.06.04-.14.07-.18.12-.49.54-1.12.95-1.6,1.51-.11.12-.86.53-.98.69-.07.08-.53.15-.56.25Z"/></svg>